<svg version="1.1" id="Capa_1" xmlns="http://www.w3.org/2000/svg" xmlns:xlink="http://www.w3.org/1999/xlink" x="0px" y="0px"
	  viewBox="0 0 141.732 141.732" enable-background="new 0 0 141.732 141.732"
	 xml:space="preserve">
	<path d="M130.405,47.634c3.157-3.162,10.746-11.634,10.746-20.008c0-7.984-2.153-14.996-6.845-19.828
		c-4.43-4.562-10.033-6.49-19.222-6.492C102.128,1.302,97.432,9.969,96.36,12.43c-7.586-3.333-15.904-5.18-24.635-5.18
		c-9.301,0-18.13,2.105-26.106,5.862l0.011-0.013c0,0-3.886-11.758-18.983-11.754C17.458,1.347,11.855,3.272,7.426,7.826
		C2.733,12.65,0.58,19.65,0.58,27.62c0,9.955,10.764,20.051,11.985,21.164c-3.18,8.02-4.942,16.818-4.942,26.055
		c0,15.607,5.031,29.969,13.459,41.41l-0.092-0.1L2.733,134.643v6.623H14.26l15.574-15.291
		c11.236,10.242,25.871,16.451,41.891,16.451c15.019,0,28.821-5.461,39.748-14.582l-0.104,0.109l12.229,13.313h12.229v-6.623
		l-14.476-17.029c9.045-11.652,14.476-26.543,14.476-42.775C135.827,65.157,133.883,55.96,130.405,47.634z M117.149,14.181
		c3.339,0.014,5.828,0.866,8.035,3.038c2.016,1.984,3.097,3.568,3.098,7.661c0,4.275-3.229,8.133-4.945,9.883
		c-4.364-6.238-9.715-11.661-15.817-16C108.967,17.298,112.599,14.162,117.149,14.181z M19.442,35.739c0,0-5.992-5.051-5.991-10.859
		c0-4.087,1.081-5.667,3.096-7.649c2.207-2.168,4.696-3.018,8.035-3.032c5.93-0.024,10.315,5.313,10.315,5.313l-0.075,0.079
		c-5.937,4.417-11.126,9.867-15.34,16.107L19.442,35.739z M71.415,128.552c-27.913,0-50.54-23.857-50.54-53.287
		c0-29.431,22.627-53.289,50.54-53.289c27.912,0,50.539,23.858,50.539,53.289C121.954,104.694,99.327,128.552,71.415,128.552z"/>
	<path d="M85.033,70.032c-1.908,0.001-3.717,0.255-5.396,0.665c1.02-3.137,1.729-6.712,1.729-10.665
		c0-13.5-9.346-23.333-9.346-23.333s-9.823,9.163-9.83,23.333c-0.008,14.65,9.584,24.333,9.584,24.333s0.852-0.869,2.036-2.446
		c2.77,1.341,6.489,2.446,11.284,2.446c11.604,0,14.896-7.5,14.896-7.5S97.699,70.022,85.033,70.032z"/>
</svg>
