<svg version="1.1" id="Capa_1" xmlns="http://www.w3.org/2000/svg" xmlns:xlink="http://www.w3.org/1999/xlink" x="0px" y="0px"
	 viewBox="0 0 141.732 141.732" enable-background="new 0 0 141.732 141.732"
	 xml:space="preserve">
	<path fill="none" d="M49.016,66.366H6.266v22.625h13.247c2.918-5.814,8.767-9.791,15.52-9.791s12.602,3.977,15.52,9.791h39.961
		c2.918-5.814,8.767-9.791,15.52-9.791s12.602,3.977,15.52,9.791h14.089V77.678l-86.625-0.001V66.366z"/>
	<polygon fill="none" points="111.908,57.366 114.741,57.366 114.741,48.824 123.366,48.823 123.366,45.949 114.741,45.949 
		114.783,37.449 111.908,37.449 111.908,45.949 103.366,45.949 103.366,48.824 111.908,48.824 	"/>
	<path fill="none" d="M109.904,88.991c-1.263-0.922-2.724-1.458-4.287-1.458s-3.025,0.536-4.288,1.458
		c-1.811,1.322-3.203,3.449-3.865,6c-0.276,1.063-0.431,2.195-0.431,3.375c0,5.983,3.843,10.834,8.584,10.834
		c4.74,0,8.583-4.851,8.583-10.834c0-1.18-0.154-2.313-0.431-3.375C113.107,92.44,111.715,90.313,109.904,88.991z"/>
	<path fill="none" d="M38.904,88.991c-1.262-0.922-2.724-1.458-4.288-1.458s-3.025,0.536-4.288,1.458
		c-1.811,1.322-3.203,3.449-3.865,6c-0.276,1.063-0.431,2.195-0.431,3.375c0,5.983,3.843,10.834,8.583,10.834
		s8.583-4.851,8.583-10.834c0-1.18-0.154-2.313-0.431-3.375C42.106,92.44,40.715,90.313,38.904,88.991z"/>
	<path fill="none" d="M56.641,68.866h79v-48.75h-79V68.866z M94.7,37.366h11.5v-8.833h14.167v8.833h11.666v17.313h-11.667v8.688
		H106.2v-8.688H94.7V37.366z M60.199,33.033c0-6.627,5.373-12,12-12h1.833c6.627,0,12,5.373,12,12v21.833c0,6.627-5.373,12-12,12
		H72.2c-6.628,0-12-5.373-12-12V33.033z"/>
	<polygon fill="none" points="49.016,31.741 32.766,31.741 11.016,57.241 49.016,57.241 	"/>
	<path fill="none" d="M73.116,59.199c3.544,0,6.417-2.873,6.417-6.417V35.116c0-3.544-2.873-6.417-6.417-6.417
		c-3.543,0-6.417,2.873-6.417,6.417v17.666C66.699,56.326,69.573,59.199,73.116,59.199z"/>
	<path d="M141.383,14.366H49.016v11.333h-22L0.35,58.032v36.959h17.349c-0.098,0.779-0.167,1.568-0.167,2.375
		c0,10.033,7.835,18.167,17.5,18.167s17.5-8.134,17.5-18.167c0-0.807-0.068-1.596-0.167-2.375h36.333
		c-0.098,0.779-0.166,1.568-0.166,2.375c0,10.033,7.835,18.167,17.5,18.167s17.5-8.134,17.5-18.167c0-0.807-0.068-1.596-0.166-2.375
		h18.016V14.366z M32.766,31.741h16.25v25.5h-38L32.766,31.741z M34.616,109.2c-4.741,0-8.583-4.851-8.583-10.834
		c0-1.18,0.154-2.313,0.431-3.375c0.663-2.551,2.054-4.678,3.865-6c1.262-0.922,2.724-1.458,4.288-1.458s3.025,0.536,4.288,1.458
		c1.811,1.322,3.203,3.449,3.865,6c0.276,1.063,0.431,2.195,0.431,3.375C43.199,104.349,39.357,109.2,34.616,109.2z M105.617,109.2
		c-4.741,0-8.584-4.851-8.584-10.834c0-1.18,0.154-2.313,0.431-3.375c0.662-2.551,2.055-4.678,3.865-6
		c1.263-0.922,2.725-1.458,4.288-1.458s3.024,0.536,4.287,1.458c1.811,1.322,3.203,3.449,3.865,6
		c0.276,1.063,0.431,2.195,0.431,3.375C114.2,104.349,110.357,109.2,105.617,109.2z M135.641,88.991h-14.089
		c-2.918-5.814-8.767-9.791-15.52-9.791s-12.602,3.977-15.52,9.791H50.552c-2.918-5.814-8.767-9.791-15.52-9.791
		s-12.602,3.977-15.52,9.791H6.266V66.366h42.75v11.312l86.625,0.001V88.991z M135.641,68.866h-79v-48.75h79V68.866z"/>
	<path d="M72.2,66.866h1.833c6.627,0,12-5.373,12-12V33.033c0-6.627-5.373-12-12-12H72.2c-6.628,0-12,5.373-12,12v21.833
		C60.199,61.493,65.572,66.866,72.2,66.866z M66.699,35.116c0-3.544,2.873-6.417,6.417-6.417c3.544,0,6.417,2.873,6.417,6.417
		v17.666c0,3.544-2.873,6.417-6.417,6.417c-3.543,0-6.417-2.873-6.417-6.417V35.116z"/>
	<path d="M106.2,63.366h14.166v-8.688h11.667V37.366h-11.666v-8.833H106.2v8.833H94.7v17.313h11.5V63.366z M103.366,48.824v-2.875
		h8.542v-8.5h2.875l-0.042,8.5h8.625v2.874l-8.625,0.001v8.542h-2.833v-8.542H103.366z"/>
</svg>
