
<svg version="1.1" id="Capa_1" xmlns="http://www.w3.org/2000/svg" xmlns:xlink="http://www.w3.org/1999/xlink" x="0px" y="0px"
	 viewBox="0 0 141.732 141.732" enable-background="new 0 0 141.732 141.732"
	 xml:space="preserve">
<path fill="#0A0A0A" d="M55.335,14.913c0,0-5.656-0.597-5.656,4.653c0,3.688,3.156,4.519,3.156,4.519L52.1,26.46
	c0,0-0.305,0.617,0.156,1.063c0.184,0.177,0.611,0.193,0.611,0.193l23.029-0.006c0,0,1.188,0.031,1.938-0.844
	s1.375-2.313,2.75-6.563s1.781-5.547,1.781-5.547s0.594-1.141,0.375-2.141c-0.242-1.106-1.157-1.158-1.157-1.158l-22.093-0.029
	c0,0-1.277-0.104-1.844,0.281c-0.768,0.522-1.146,1.013-1.146,1.013L55.335,14.913z"/>
<path fill="#0A0A0A" d="M50.491,35.512c0,0-5.875-0.896-6.042,4.636c-0.133,4.429,5.229,4.801,5.229,4.801v1.354
	c0,0-0.019,0.794,0.679,1.343c0.676,0.532,1.696,0.49,1.696,0.49l20.979,0.011c0,0,1.185,0.007,1.938-0.865
	c1.188-1.375,0.459-1.898,0.87-6.582c0.442-5.043,1.047-5.814,1.047-5.814s0.621-1.146,0.583-1.646
	c-0.086-1.129-1.304-1.2-1.304-1.2H53.22c0,0-0.673,0.023-1.125,0.356c-0.6,0.442-0.792,0.823-0.792,0.823L50.491,35.512z"/>
<path fill="#0A0A0A" d="M50.72,56.553c0,0-2.479,1.188-2.479,4.178c0,4.781,4.437,4.551,4.437,4.551l0.354,1.563
	c0,0,0.083,0.438,0.958,1.125c0.919,0.722,1.646,0.751,1.646,0.751h25.917c0,0,0.816,0.033,0.813-0.959
	c-0.004-0.96-1.188-2.125-3.375-7.104c-2.036-4.636-2.479-6.208-2.479-6.208s-0.367-0.93-1.192-1.349
	c-1.452-0.738-2.329-0.661-2.329-0.661l-20.999-0.031c0,0-0.583,0-1.262,0.519c-0.592,0.453-0.488,2.605-0.488,2.605L50.72,56.553z"
	/>
<path fill="none" stroke="#000000" stroke-width="4" stroke-miterlimit="10" d="M61.868,77.618c0,0-1.632,0.621-1.632,3.134
	c0,5.096,5.556,3.992,5.556,3.992l0.748,1.488c0,0,0.21,0.386,0.945,0.963c0.773,0.607,1.368,0.655,1.368,0.655l20.834,0.011
	c0,0,1.176-0.131,1.173-0.964c-0.004-0.808-0.648-1.593-2.486-5.778c-1.711-3.896-2.137-4.884-2.137-4.884s-0.473-1.12-0.998-1.366
	c-1.461-0.683-1.943-0.613-1.943-0.613h-21.5c0,0-0.351-0.03-0.753,0.262c-0.508,0.366-0.186,1.127-0.186,1.127L61.868,77.618z"/>
<path fill="#0A0A0A" d="M67.96,97.241c0,0-3.109,1.156-3.109,4.578c0,5.297,5.141,4.328,5.141,4.328l0.672,1.906
	c0,0,0.418,0.764,0.87,1.229c0.541,0.558,1.427,0.427,1.427,0.427l21.875,0.019c0,0,0.964-0.036,1.422-0.769
	c0.51-0.814,0.37-3.671-0.047-7.359c-0.562-4.968-0.688-5.922-0.688-5.922S95.3,94.71,94.85,94.397
	c-1.203-0.837-2.313-0.78-2.313-0.78H69.866c0,0-1.313-0.014-1.792,0.333c-0.604,0.437-0.365,1.322-0.365,1.322L67.96,97.241z"/>
<path fill="#0A0A0A" d="M69.949,117.574c0,0-5.745-1.211-5.896,4.698c-0.094,3.656,3.219,4.609,3.219,4.609l-0.5,1.906
	c0,0-0.198,0.603,0.169,0.943c0.472,0.438,0.966,0.414,0.966,0.414l21.958,0.003c0,0,1.183-0.128,1.641-0.86
	c0.51-0.814,1.176-1.663,2.719-6.344c1.565-4.748,2.327-6.594,2.327-6.594s0.18-0.741-0.655-1.609
	c-0.797-0.828-1.703-0.714-1.703-0.714l-20.536,0.006c0,0-1.323-0.013-1.728,0.288c-1.002,0.746-1.064,1.092-1.064,1.092
	L69.949,117.574z"/>
<path fill="#0A0A0A" d="M54.335,76.319c0.138-0.506-0.125-0.828-0.375-1.078s-14.234-5.813-15.031-5.813
	c-0.984,0-1.406,0.578-1.828,1.609c-0.379,0.926-0.338,1.759,0.469,2.283c0.625,0.406,14.804,3.124,15.219,3.186
	C53.641,76.634,54.241,76.663,54.335,76.319z"/>
<path fill="#0A0A0A" d="M53.788,82.21c-0.132-0.529-0.697-0.603-1.063-0.609c-1.313-0.024-14.344,0.359-15.856,0.766
	c-0.463,0.124-0.884,1.5-0.821,2.344s0.717,1.985,1.287,1.971c2.547-0.064,15.826-3.454,16.005-3.544
	C53.725,82.944,53.846,82.444,53.788,82.21z"/>
<path fill="#0A0A0A" d="M55.663,86.882c-0.223-0.27-0.726-0.319-1.078-0.031c-0.406,0.332-11.225,11.415-11.393,11.953
	c-0.219,0.703,0.205,1.438,0.799,1.969s1.385,0.976,2.041,0.731s9.558-13.26,9.757-13.623
	C55.954,87.579,55.975,87.259,55.663,86.882z"/>
<path fill="#0A0A0A" d="M91.171,75.976c0.406,0.266,0.944,0.224,1.278-0.193s9.772-11.368,10.039-12.332
	c0.266-0.958,0.565-1.7-0.685-2.367s-1.829-0.779-2.453-0.406c-0.969,0.578-7.845,13.268-8.151,13.771
	C90.84,75.038,90.672,75.65,91.171,75.976z"/>
<path fill="#0A0A0A" d="M93.72,80.408c0.104,0.504,0.434,0.648,0.724,0.649c0.922,0.004,15.624-2.188,16.084-2.417
	c1.195-0.596,0.889-1.314,0.659-2.272s-0.384-1.625-1.04-1.615c-1.736,0.025-15.146,4.344-15.577,4.475
	C93.96,79.413,93.616,79.897,93.72,80.408z"/>
<path fill="#0A0A0A" d="M95.022,86.366c-0.204,0.472,0.073,0.922,0.219,1.031c0.5,0.375,13.578,5.205,15.328,5.377
	c0.845,0.083,1.453-0.268,1.891-1.33s0.548-1.576,0.047-2.469c-0.641-1.141-14.848-3.018-15.906-3.125
	C95.792,85.768,95.272,85.788,95.022,86.366z"/>
</svg>
