<svg version="1.1" id="Capa_1" xmlns="http://www.w3.org/2000/svg" xmlns:xlink="http://www.w3.org/1999/xlink" x="0px" y="0px"
	 viewBox="0 0 141.732 141.732" enable-background="new 0 0 141.732 141.732"
	 xml:space="preserve">
	<path d="M119.054,9.741H99.213H85.039H70.866H56.532H42.519H22.677H1.058v18.605v19.812v22.708v9.921v12.756v11.339v25.859h21.619
		h19.842h14.013h14.333h14.173h14.174h19.842h21.619v-25.859V93.543V80.787v-9.921V48.158V28.346V9.741H119.054z M12.866,104.882
		V93.543V80.787v-9.921V48.194l9.811,7.501l19.842,15.171l-8.648,9.921l-11.12,12.756h-0.074v0.085L12.866,104.882z M99.213,118.991
		H85.039H70.866H56.532H42.519H22.677l12.503-14.109l7.339-8.281l2.709-3.058l11.304-12.756l14.333,12.756l14.173-12.756
		l11.357,12.756l2.816,3.163l7.279,8.176l12.563,14.109H99.213z M128.866,70.866v9.921v12.756v11.323l-9.812-11.272v-0.051h-0.044
		l-11.103-12.756l-8.635-9.921l19.781-15.179l9.812-7.529V70.866z M128.866,28.346l-9.812,7.193l-17.213,12.619l-2.629,1.927
		L85.039,60.476l-14.173,10.39L56.532,60.383L42.519,50.135l-2.702-1.977l-17.14-12.536l-9.811-7.175v-0.101v-6.855h9.811h19.842
		h14.013h14.333h14.173h14.174h19.842h9.812V28.346z"/>
</svg>
