<?xml version="1.0" encoding="utf-8"?>
<!-- Generator: Adobe Illustrator 15.0.0, SVG Export Plug-In . SVG Version: 6.00 Build 0)  -->
<!DOCTYPE svg PUBLIC "-//W3C//DTD SVG 1.1//EN" "http://www.w3.org/Graphics/SVG/1.1/DTD/svg11.dtd">
<svg version="1.1" id="Capa_1" xmlns="http://www.w3.org/2000/svg" xmlns:xlink="http://www.w3.org/1999/xlink" x="0px" y="0px"
	 width="141.732px" height="141.732px" viewBox="0 0 141.732 141.732" enable-background="new 0 0 141.732 141.732"
	 xml:space="preserve">
<path d="M27.572,4.199c0,0,13.876,5.476,46.656,5.813c23.344,0.241,38.117-5.813,38.117-5.813s-0.301,4.459,3.792,8.551
	c4.167,4.167,10.441,2.177,14.457,6.072c2.144,2.08,5.905,4.556,5.903,13.365c-0.001,8.66-8.628,16.507-16.242,16.031
	c-4.793-0.299-4.806-1.4-8.061-1.438c-2.547-0.03-3.597,1.049-3.597,1.049s1.744-0.545,3.326,1.768
	c1.17,1.708,0.99,2.857-2.786,5.094c-3.897,2.308-13.274,3.536-13.274,3.536s0.239-2.637-1.229-4.554
	c-1.794-2.343-7.461-1.679-20.407-1.679c-12.944,0-18.938-0.869-21.036,1.289c-2.085,2.145-1.438,5.903-1.438,5.903
	s-6.563-0.689-13.395-3.206c-4.278-1.577-7.595-2.389-7.734-4.675c-0.132-2.184,2.248-3.086,2.248-3.086
	c-5.152-2.308-6.274-1.349-8.428-0.97c-1.708,0.3-1.129,0.97-5.144,0.82c-3.611-0.135-5.993-0.18-10.009-3.537
	c-3.335-2.787-6.907-8.516-6.048-13.532c2.812-16.433,12.851-13.736,18.395-17.033C27.041,10.756,27.572,4.199,27.572,4.199z"/>
<path d="M49.967,78.036c0,0,0.249,6.9,2.038,8.181c2.218,1.589,10.069,0.989,20.616,1.02c4.682,0.012,17.628,1.085,20.166-1.559
	c2.189-2.276,1.529-7.642,1.529-7.642s4.835-0.401,11.119-1.768c5.295-1.152,6.981-2.786,6.981-2.786s2.396,8.779,6.652,10.606
	c3.609,1.55,5.573,0.885,9.768,3.11c4.196,2.225,8.375,7.468,8.512,13.612c0.149,6.712-2.399,10.518-6.354,13.514
	c-3.955,2.998-4.733,3.326-9.889,3.417c-5.04,0.088-4.287-1.367-8.18-1.229c-2.667,0.094-6.49,1.438-10.578,5.155
	c-3.986,3.625-3.896,3.564-6.953,7.611c-2.454,3.248-11.058,11.387-22.773,11.715c-8.15,0.229-13.064-0.746-19.297-4.942
	c-6.233-4.195-10.797-11.138-14.863-14.864c-2.877-2.637-4.195-3.266-8.99-3.985c-4.794-0.719-4.165,0.554-8.36,0.569
	c-7.731,0.029-17.117-4.68-16.721-15.492c0.21-5.724,0.935-9.655,6.263-13.664c6.054-4.555,7.411-1.736,12.085-4.584
	c5.623-3.425,5.175-8.152,5.895-9.591C29.351,73.002,49.967,78.036,49.967,78.036z"/>
<polygon points="72.071,59.936 75.667,59.936 75.667,67.398 83.308,67.398 83.308,71.174 75.712,71.174 75.712,78.814 
	72.071,78.814 72.071,71.219 64.474,71.219 64.474,67.442 72.071,67.442 "/>
<path d="M32.816,53.404c0,0-0.3,2.816,0.599,3.116c0.899,0.3,1.318-2.756,1.318-2.756L32.816,53.404z"/>
<path d="M32.768,59.936c0.617,0.12,0.869,0.06,0.982,0.569s0.126,2.306,0,3.505s-0.228,1.32-0.447,1.829
	c-0.218,0.508-0.338,0.927-0.668,0.868c-0.329-0.059-0.659,0-0.779-0.539c-0.12-0.54-0.42-0.839-0.3-2.696
	c0.12-1.858,0.33-2.967,0.539-3.236C32.307,59.966,32.768,59.936,32.768,59.936z"/>
<path d="M30.252,74.552c0,0,0.287-1.73,0.497-2.689c0.21-0.959,1.078-2.097,1.318-2.068c0.24,0.03,0.569,1.131,0.449,2.378
	c-0.119,1.247-0.509,2.379-0.509,2.379H30.252z"/>
<path d="M112.196,75.068c0,0-0.18-0.508-0.449-2.187s0.061-2.968,0.449-3.027c0.39-0.059,1.139,0.3,1.289,0.779
	s0.329,2.818,0.329,3.297C113.814,74.41,112.196,75.068,112.196,75.068z"/>
<path d="M111.118,59.846c0.063-0.006,0.123-0.013,0.18-0.018c0.472-0.042,0.692-0.005,0.959,0.557
	c0.299,0.629,0.5,1.738,0.475,2.936c-0.025,1.199-0.025,2.369-0.204,2.878c-0.181,0.508-0.149,0.659-0.45,0.659
	c-0.3,0-0.63,0.299-0.959-0.899c-0.33-1.198-0.452-1.348-0.6-3.026c-0.149-1.679-0.212-2.097,0-2.517"/>
<path d="M111.556,52.354c-0.079,0.09,0.081,2.039,0,2.757c-0.079,0.72,0.161,1.108-0.438,1.288s-0.9,0.45-1.05-0.209
	c-0.148-0.66-0.238-0.271-0.508-1.409C109.29,53.643,111.556,52.354,111.556,52.354z"/>
</svg>
