<?xml version="1.0" encoding="utf-8"?>
<!-- Generator: Adobe Illustrator 16.0.0, SVG Export Plug-In . SVG Version: 6.00 Build 0)  -->
<!DOCTYPE svg PUBLIC "-//W3C//DTD SVG 1.1//EN" "http://www.w3.org/Graphics/SVG/1.1/DTD/svg11.dtd">
<svg version="1.1" id="Layer_1" xmlns="http://www.w3.org/2000/svg" xmlns:xlink="http://www.w3.org/1999/xlink" x="0px" y="0px"
	 width="144px" height="144px" viewBox="0 0 144 144" enable-background="new 0 0 144 144" xml:space="preserve">
<path fill="#498DCB" d="M36.311,105.787c0.131,0.033,3.209,0.639,6.938,0.639c5.244,0,9.076-1.176,11.402-3.498
	c4.115-4.119,8.121-11.404,9.457-13.957c4.834-0.33,7.441-2.939,9.764-5.262l33.633-33.633c0.965-0.963,1.492-2.238,1.492-3.598
	s-0.527-2.631-1.492-3.596l-2.402-2.402c-1.918-1.926-5.275-1.922-7.186,0l-62.467,62.461c-0.439,0.443-0.604,1.09-0.422,1.684
	C35.203,105.219,35.701,105.668,36.311,105.787z"/>
<path fill="#498DCB" stroke="#FFFFFF" stroke-width="3" stroke-miterlimit="10" d="M73.25,10.1
	c-36.532,0-66.149,29.616-66.149,66.15c0,36.532,29.617,66.149,66.149,66.149c36.534,0,66.15-29.617,66.15-66.149
	C139.4,39.716,109.784,10.1,73.25,10.1z M123.552,76.25c0,10.887-3.514,20.951-9.414,29.194L44.057,35.362
	c8.242-5.902,18.308-9.414,29.193-9.414C100.985,25.948,123.552,48.515,123.552,76.25z M22.949,76.25
	c0-10.888,3.515-20.952,9.415-29.195l70.081,70.083c-8.243,5.899-18.308,9.414-29.195,9.414
	C45.516,126.552,22.949,103.986,22.949,76.25z"/>
</svg>
