<svg version="1.1" id="Capa_1" xmlns="http://www.w3.org/2000/svg" xmlns:xlink="http://www.w3.org/1999/xlink" x="0px" y="0px"
	 viewBox="0 0 141.732 141.732" enable-background="new 0 0 141.732 141.732"
	 xml:space="preserve">
	<path fill="#070707" d="M70.699,30.366c-10.585,0-19.167,8.581-19.167,19.167c0,10.585,8.581,19.167,19.167,19.167
		c10.586,0,19.167-8.581,19.167-19.167C89.866,38.947,81.285,30.366,70.699,30.366z M70.699,59.367
		c-5.287,0-9.573-4.286-9.573-9.573c0-5.288,4.286-9.573,9.573-9.573s9.573,4.286,9.573,9.573
		C80.272,55.082,75.986,59.367,70.699,59.367z"/>
	<path fill="#070707" d="M70.866,0c-29.75,0-56.693,19.615-56.693,58.11c0,41.103,56.693,83.622,56.693,83.622
		s56.438-42.52,56.5-83.622C127.423,20.86,100.616,0,70.866,0z M70.866,124.866c0,0-43.938-40.709-43.938-66.756
		c0-26.046,20.047-45.338,43.841-45.338s44.018,18.717,44.018,45.338S70.866,124.866,70.866,124.866z"/>
</svg>
