<svg version="1.1" id="Capa_1" xmlns="http://www.w3.org/2000/svg" xmlns:xlink="http://www.w3.org/1999/xlink" x="0px" y="0px"
	 viewBox="0 0 141.732 141.732" enable-background="new 0 0 141.732 141.732"
	 xml:space="preserve">
<path d="M113.949,69.366l-15.5-6.833c0,0-5.072,3.212-27.583,3.205c-23-0.008-30.333-4.372-33.083-4.372c-2,0-4.417,1.667-3.5,4.167
	c0.95,2.59,9,7.096,37.5,7.096C89.533,72.629,113.949,69.366,113.949,69.366z"/>
<path d="M104.991,61.957l15.031,6.659c0,0,4.177-0.5,6.844-2.417s4.281-3.083,4.281-5.396c0-2-1.905-4.854-4.519-5.39
	c-2.981-0.61-6.428,0.742-9.813,1.938C113.147,58.647,104.991,61.957,104.991,61.957z"/>
<path d="M111.241,72.629c0,0-15.5,4.832-40.375,4.832s-38.063-5.063-38.063-5.063s-0.816,5.021-3.125,7.219
	c-4.531,4.313-9.219,2.906-12.993,5.847c-3.326,2.592-6.695,6.755-6.695,12.028c0,11.563,9.5,15.625,14.875,15.5
	c4.937-0.115,5.104-1.021,7.438-1.021c4.314,0,8,2.896,11.25,5.771s11.563,16.938,27.313,16.938
	c20.125,0,24.375-11.813,29.375-16.813s8.137-5.876,11.781-5.906c3.781-0.031,2.291,1.261,6.964,1.232
	c7.505-0.045,15.224-6.232,15.224-14.607c0-4.843-2.322-10.572-7.572-13.718c-5.188-3.108-7.938-0.834-11.875-4.938
	C112.239,77.3,111.241,72.629,111.241,72.629z"/>
<path d="M109.178,6.928c0,0-9.75,5.5-38.313,5.609c-31.75,0.122-40.563-5.609-40.563-5.609s0.602,3.566-2.646,7.104
	c-3.955,4.309-7.317,3.198-10.733,4.948c-4.478,2.293-9.267,5.802-8.993,14.636c0.221,7.141,5.794,14.313,14.685,14.391
	c5.266,0.046,5.031-1.281,7.531-1.281s5.25,1.469,5.25,1.469s-2.15,1.232-2.141,2.982c0.016,2.752,12.235,7.922,37.61,7.919
	c25.542-0.003,38.858-4.665,38.64-7.917c-0.188-2.797-3.531-3.359-3.531-3.359s1.248-1.051,3.609-1.047
	c3.254,0.005,2.026,1.383,7.781,1.344c6.083-0.042,14.729-5.593,14.729-15.149c0-7.143-5.063-12.434-9.729-14.309
	c-3.448-1.385-7.313-0.521-10.25-4.354C109.923,11.441,109.178,6.928,109.178,6.928z"/>
</svg>
