<svg version="1.1" id="Capa_1" xmlns="http://www.w3.org/2000/svg" xmlns:xlink="http://www.w3.org/1999/xlink" x="0px" y="0px"
	 viewBox="0 0 141.732 141.732" enable-background="new 0 0 141.732 141.732"
	 xml:space="preserve">
<path fill="#0A0A0A" d="M89.778,68.713c0,0,2.661,2.203,5.974,2.152c4.094-0.063,9.078-3.996,9.078-8.975
	c0-5.521-5.114-9.271-8.427-9.271c-2.333,0-4.563,1.531-7.031,1.469c-2.505-0.063-2.714-0.392-4.823-0.361
	c-3.156,0.047-7.234,2.751-7.516,8.018c-0.289,5.417,4.39,8.484,7.297,8.396C88.611,70.01,89.778,68.713,89.778,68.713z"/>
<g>
	<path fill="#0A0A0A" d="M125.368,64.584c-1.346-2.912-3.031-8.296-3.031-11.296s0.659-1.936,0.498-5.093
		c-0.156-3.063-3.625-5.31-12.438-5.438c-6.469-0.094-5.531,0.75-9.5,0.688c-5.332-0.084-5.563-3.543-13.656-3.625
		c-6.188-0.063-10.125,3.688-15.415,3.705c-4.167,0.014-5.46-4.58-9.522-4.601c-1.787-0.009-3.969,2.958-3.969,2.958
		s-2.343-1.264-3.275-2.903c-1.193-2.097-0.131-1.931-1.131-5.597s-3.078-5.203-7.406-5.203c-7.51,0-20.5,6.516-20.5,15.953
		c0,8.5,6.036,14.159,5.823,20.88c-0.203,6.407-4.917,6.604-11.208,11.245C14.52,80.768,7.241,84.47,7.235,95.72
		c-0.006,10.896,4.485,17.96,10.943,17.958c6.521-0.002,9.616-1.551,11.854-5.604c1.771-3.208,1.916-3.757,4.021-3.771
		c3.229-0.021,4.643,2.58,7,4.938c2.875,2.875,4.708,4.083,6.647,4.003c4.377-0.181,6.707-4.398,6.666-8.607
		c-0.054-5.425-1.167-6.354-1.146-14.772c0.021-8.34,2.365-17.732,5.327-18.346c3.052-0.632,5.101,2.926,5.179,5.098
		c0.128,3.555-2.172,5.292,0.396,8.755c3.228,4.353,16.044,1.864,37.182-2.583c19.373-4.076,27.75-8.5,27.75-11.781
		C129.053,68.84,126.835,67.757,125.368,64.584z M96.367,72.741c-4.937,0.006-6.539-2.298-6.539-2.298s-2.109,1.43-5.753,1.61
		c-4.625,0.229-10.285-4.188-10.271-10.335c0.011-5.014,4.959-9.769,9.542-9.728c3.5,0.032,3.168,0.892,5.959,0.875
		c3.396-0.021,4.426-2.089,7.874-2.094c3.854-0.006,10.313,4.481,10.313,11.053C107.492,67.845,101.87,72.734,96.367,72.741z"/>
</g>
<path fill="#0A0A0A" d="M99.283,88.533c19.125-3.459,26.785-9.368,28.875-9.375c1.834-0.006,3.209,1.033,3.209,2.583
	c0,1.45-7.492,8.514-32.714,13.083c-23.458,4.25-31.745,2.768-32.662,1.125c-0.992-1.777-0.847-3.625,2.153-4.375
	S75.063,92.914,99.283,88.533z"/>
</svg>
